<svg width="228" height="228" viewBox="0 0 228 228" fill="none" xmlns="http://www.w3.org/2000/svg">
<g clip-path="url(#clip0_6_8)">
<path d="M228 114C228 176.96 176.96 228 114 228C51.0395 228 0 176.96 0 114C0 51.0395 51.0395 0 114 0C176.96 0 228 51.0395 228 114Z" fill="url(#paint0_linear_6_8)"/>
<path d="M68.3636 70.0909H86.5455V88.2727H68.3636V70.0909ZM50.1818 70.0909H68.3636V88.2727H50.1818V70.0909ZM32 88.2727H50.1818V106.455H32V88.2727ZM32 106.455H50.1818V124.636H32V106.455ZM50.1818 106.455H68.3636V124.636H50.1818V106.455ZM68.3636 106.455H86.5455V124.636H68.3636V106.455ZM68.3636 124.636H86.5455V142.818H68.3636V124.636ZM68.3636 142.818H86.5455V161H68.3636V142.818ZM50.1818 142.818H68.3636V161H50.1818V142.818ZM32 142.818H50.1818V161H32V142.818ZM32 70.0909H50.1818V88.2727H32V70.0909ZM104.656 70.0909H122.838V88.2727H104.656V70.0909ZM104.656 88.2727H122.838V106.455H104.656V88.2727ZM104.656 106.455H122.838V124.636H104.656V106.455ZM104.656 124.636H122.838V142.818H104.656V124.636ZM122.838 142.818H141.02V161H122.838V142.818ZM141.02 124.636H159.202V142.818H141.02V124.636ZM141.02 106.455H159.202V124.636H141.02V106.455ZM141.02 88.2727H159.202V106.455H141.02V88.2727ZM141.02 70.0909H159.202V88.2727H141.02V70.0909ZM159.202 142.818H177.384V161H159.202V142.818ZM177.384 124.636H195.565V142.818H177.384V124.636ZM177.384 106.455H195.565V124.636H177.384V106.455ZM177.384 88.2727H195.565V106.455H177.384V88.2727ZM177.384 70.0909H195.565V88.2727H177.384V70.0909Z" fill="white"/>
</g>
<defs>
<linearGradient id="paint0_linear_6_8" x1="59.1047" y1="1.93308e-06" x2="168.895" y2="228" gradientUnits="userSpaceOnUse">
<stop offset="0.0304276" stop-color="#FF6565"/>
<stop offset="1" stop-color="#FF0037"/>
</linearGradient>
<clipPath id="clip0_6_8">
<rect width="228" height="228" fill="white"/>
</clipPath>
</defs>
</svg>
